<?xml version="1.0" standalone="no"?>
<!DOCTYPE svg PUBLIC "-//W3C//DTD SVG 20010904//EN"
 "http://www.w3.org/TR/2001/REC-SVG-20010904/DTD/svg10.dtd">
<svg version="1.0" xmlns="http://www.w3.org/2000/svg"
 width="509.000000pt" height="490.000000pt" viewBox="0 0 509.000000 490.000000"
 preserveAspectRatio="xMidYMid meet">

<g transform="translate(0.000000,490.000000) scale(0.100000,-0.100000)"
fill="#000000" stroke="none">
<path d="M2250 4530 c-95 -12 -361 -82 -470 -125 -254 -99 -447 -213 -643
-378 -441 -373 -703 -859 -765 -1422 -12 -103 -5 -454 11 -560 36 -243 147
-549 275 -755 225 -364 556 -664 927 -841 323 -154 600 -219 928 -219 251 0
391 22 614 96 163 54 304 119 461 213 194 118 260 169 412 321 273 273 438
531 553 870 69 201 110 495 102 724 -3 76 -10 147 -16 157 -5 11 -7 23 -4 28
3 5 1 31 -5 58 -5 26 -19 95 -31 152 -35 172 -108 367 -201 541 -154 290 -324
486 -627 723 -264 208 -656 368 -1011 413 -120 15 -399 17 -510 4z m546 -44
c483 -80 880 -289 1230 -648 289 -295 501 -729 559 -1144 24 -175 25 -179 17
-169 -4 6 -14 11 -23 11 -15 1 -17 -20 -22 -190 -4 -165 -9 -211 -36 -339 -69
-319 -183 -569 -382 -833 -87 -116 -248 -285 -348 -366 -253 -204 -639 -390
-921 -442 -207 -39 -542 -37 -722 5 -604 138 -1044 438 -1368 931 -43 65 -81
114 -85 110 -5 -4 -5 -2 -1 5 3 6 -3 27 -14 45 -12 18 -20 26 -19 18 3 -19
-11 -50 -21 -50 -32 0 -154 314 -199 516 -172 755 109 1549 729 2064 58 48
148 115 200 150 248 166 656 312 950 340 116 11 366 4 476 -14z"/>
<path d="M2380 4410 c-37 -6 -30 -7 40 -8 47 0 105 3 130 7 39 7 33 8 -40 8
-47 0 -105 -3 -130 -7z"/>
<path d="M2623 4403 c9 -2 23 -2 30 0 6 3 -1 5 -18 5 -16 0 -22 -2 -12 -5z"/>
<path d="M2828 4383 c7 -3 16 -2 19 1 4 3 -2 6 -13 5 -11 0 -14 -3 -6 -6z"/>
<path d="M2908 4363 c7 -3 16 -2 19 1 4 3 -2 6 -13 5 -11 0 -14 -3 -6 -6z"/>
<path d="M2566 4347 c8 -23 -12 -54 -41 -61 -31 -8 -63 8 -75 37 -7 20 -9 20
-15 4 -10 -23 19 -65 50 -73 32 -8 69 1 90 22 18 19 17 75 -3 82 -7 2 -10 -2
-6 -11z"/>
<path d="M2958 4353 c7 -3 16 -2 19 1 4 3 -2 6 -13 5 -11 0 -14 -3 -6 -6z"/>
<path d="M3010 4340 c8 -5 24 -10 34 -10 26 0 18 6 -19 14 -22 5 -26 4 -15 -4z"/>
<path d="M1740 4250 c-8 -5 -10 -10 -5 -10 6 0 17 5 25 10 8 5 11 10 5 10 -5
0 -17 -5 -25 -10z"/>
<path d="M3290 4240 c19 -11 40 -19 45 -19 6 0 -6 8 -25 19 -19 11 -39 19 -45
19 -5 0 6 -8 25 -19z"/>
<path d="M3350 4215 c0 -2 24 -15 53 -29 30 -14 75 -43 101 -64 26 -22 64 -45
85 -52 21 -7 56 -28 77 -47 22 -19 48 -39 59 -44 11 -6 2 6 -19 26 -77 69
-356 234 -356 210z"/>
<path d="M2275 4175 c-490 -63 -976 -363 -1254 -775 -152 -226 -221 -394 -282
-685 -32 -155 -33 -405 -2 -515 12 -41 26 -109 33 -150 25 -169 132 -432 244
-600 190 -283 437 -504 721 -645 299 -148 603 -211 896 -186 296 24 573 119
814 278 299 198 514 439 656 738 70 148 101 239 128 375 66 341 49 652 -54
950 -20 58 -37 113 -38 123 -1 9 -4 17 -8 17 -12 0 -17 38 -7 48 10 10 -17 72
-54 125 -11 15 -32 50 -46 76 -78 143 -257 339 -425 465 -246 184 -495 296
-767 346 -149 28 -403 34 -555 15z m380 -130 c22 -4 67 -10 100 -14 125 -18
218 -44 303 -86 86 -43 87 -44 47 -44 -24 -1 -64 10 -100 27 -113 53 -170 71
-296 91 -178 29 -336 25 -509 -15 -17 -4 -22 -2 -15 5 6 5 62 17 125 25 63 9
129 18 145 20 33 5 136 0 200 -9z m-485 -45 c0 -5 -4 -10 -10 -10 -5 0 -51
-18 -101 -41 -50 -23 -129 -49 -175 -58 -84 -17 -107 -11 -32 10 23 6 52 18
66 27 33 22 115 51 187 67 33 7 61 13 63 14 1 1 2 -3 2 -9z m528 -25 c91 -15
225 -60 287 -96 17 -10 66 -25 110 -34 127 -24 317 -133 528 -302 155 -124
182 -182 152 -324 -19 -93 -95 -248 -141 -289 -58 -50 -118 -38 -188 41 -64
70 -90 144 -126 353 -26 153 -82 296 -136 351 -27 27 -26 11 5 -56 38 -85 68
-194 81 -304 20 -152 57 -305 99 -410 23 -54 41 -100 41 -102 0 -2 4 -3 10 -3
5 0 16 15 24 33 l14 32 1 -61 c2 -169 -122 -381 -283 -482 -156 -99 -285 -147
-494 -183 -181 -30 -305 -22 -522 36 -245 66 -459 215 -548 382 -58 111 -92
294 -58 322 11 9 15 4 20 -29 7 -46 22 -52 37 -13 6 15 21 49 34 76 14 26 24
51 24 55 -1 4 0 9 1 12 1 3 3 16 4 30 1 14 4 30 8 35 9 16 27 101 53 256 27
162 49 239 100 344 l34 70 -34 -40 c-76 -88 -118 -193 -155 -388 -46 -238 -99
-338 -202 -381 -42 -18 -77 -10 -116 27 -69 64 -142 255 -142 371 0 51 5 70
29 108 40 63 152 156 321 267 180 117 247 149 349 165 57 9 92 21 125 43 53
35 184 80 271 92 99 14 284 12 383 -4z m-1019 -158 c-2 -1 -13 -9 -24 -17 -19
-14 -19 -14 -6 3 7 9 18 17 24 17 6 0 8 -1 6 -3z m-142 -97 c-14 -11 -29 -20
-34 -20 -11 1 37 40 49 40 6 0 -1 -9 -15 -20z m-98 -64 c-11 -10 -103 -78 -97
-71 4 5 2 15 -5 24 -10 14 -10 14 3 4 12 -9 20 -7 37 7 12 9 19 21 15 25 -4 5
-2 6 3 2 6 -3 17 -2 25 4 15 9 27 12 19 5z m-112 -73 c0 -8 -4 -10 -12 -3 -17
14 -27 0 -13 -19 7 -9 8 -13 4 -9 -5 4 -20 -4 -33 -18 -15 -16 -30 -24 -40
-20 -14 6 -14 4 -2 -11 8 -9 9 -14 2 -10 -6 4 -13 2 -15 -4 -2 -7 -10 -10 -18
-7 -10 3 4 22 42 60 55 53 85 68 85 41z m2541 -210 c17 -24 32 -47 32 -52 0
-4 14 -27 31 -50 17 -24 39 -62 49 -84 9 -23 29 -68 44 -99 14 -31 26 -60 26
-63 0 -3 11 -30 24 -58 13 -29 27 -63 31 -77 4 -14 14 -34 21 -45 8 -11 14
-31 14 -45 0 -14 7 -33 15 -43 7 -11 17 -36 20 -58 4 -25 11 -37 18 -33 8 5 7
2 0 -7 -17 -17 -16 -29 1 -29 19 0 32 -133 29 -310 -2 -124 -13 -209 -42 -330
-6 -25 -14 -55 -16 -68 -4 -15 -12 -22 -23 -20 -12 2 -18 -5 -20 -22 -3 -23
-3 -24 10 -6 13 16 14 15 10 -18 -2 -20 -8 -36 -13 -36 -5 0 -9 -9 -9 -19 0
-11 -5 -23 -11 -26 -6 -4 -8 -14 -5 -22 3 -8 1 -11 -4 -8 -5 3 -8 18 -6 33 2
15 1 19 -1 10 -6 -22 -33 -12 -33 12 0 11 -4 21 -9 24 -15 9 0 -37 19 -59 30
-35 31 -43 9 -64 -13 -12 -19 -26 -16 -35 4 -9 2 -16 -3 -16 -6 0 -10 -7 -10
-16 0 -8 -4 -12 -10 -9 -5 3 -7 0 -4 -9 6 -17 -44 -115 -82 -161 l-25 -30 7
40 c4 22 8 76 7 120 0 73 -3 83 -29 113 -88 102 -100 118 -96 135 2 9 7 17 11
17 5 0 7 14 5 31 -3 20 4 44 16 64 25 41 25 62 1 70 -18 5 -18 7 -1 53 42 110
34 232 -15 232 -20 0 -24 6 -30 49 -18 135 -160 320 -208 272 -7 -7 -14 -49
-17 -94 -9 -135 -75 -250 -193 -335 l-45 -32 -15 38 c-19 47 -12 89 19 109 25
16 31 42 15 58 -5 6 12 45 45 100 30 50 69 127 86 173 31 80 33 83 72 93 23 6
50 18 61 27 24 21 58 72 48 72 -5 0 -1 5 7 11 12 8 12 12 2 16 -10 4 -10 7 2
17 23 17 102 175 132 262 34 102 38 210 10 269 -28 56 -30 64 -9 35 10 -13 33
-44 51 -67z m-2703 -14 c-11 -47 15 -207 46 -293 16 -44 29 -96 29 -115 0 -42
27 -104 75 -177 34 -50 61 -68 124 -80 29 -6 49 -25 43 -43 -4 -11 -6 -11 -13
0 -6 10 -9 8 -9 -8 0 -14 6 -23 15 -23 11 0 15 -12 15 -44 0 -33 5 -47 20 -57
13 -9 22 -28 24 -54 6 -72 28 -126 54 -136 19 -7 23 -15 20 -33 -4 -19 0 -26
16 -30 12 -3 27 -15 35 -27 12 -20 11 -24 -5 -37 -13 -10 -15 -16 -6 -19 21
-8 13 -48 -18 -91 -16 -23 -30 -46 -30 -51 0 -4 -11 -17 -25 -27 -14 -10 -25
-22 -25 -26 0 -15 24 -8 47 14 l23 21 0 -28 c0 -27 -1 -27 -49 -23 -31 3 -55
0 -67 -9 -10 -7 -26 -13 -36 -13 -21 0 -115 -45 -140 -67 -22 -20 -121 -66
-113 -53 3 6 0 10 -8 10 -18 0 -41 -26 -33 -38 6 -11 -40 -27 -63 -23 -8 1
-22 12 -32 24 -11 13 -18 17 -19 9 0 -7 7 -20 15 -28 22 -22 18 -47 -10 -74
-17 -16 -23 -30 -19 -43 4 -14 2 -18 -7 -15 -22 8 -49 -11 -49 -34 0 -18 -14
-18 -15 0 -2 19 -20 60 -37 84 -15 22 -50 108 -62 153 -2 6 -8 21 -13 35 -10
23 -25 83 -24 95 0 2 -6 22 -14 44 -7 21 -16 64 -20 95 -6 46 -5 57 9 62 22 9
20 31 -4 37 -15 4 -20 14 -20 41 0 29 4 36 20 36 31 0 27 44 -6 59 -23 10 -25
16 -20 44 3 18 8 74 10 124 2 57 9 102 18 115 8 13 15 41 16 63 1 46 47 225
59 234 4 3 9 11 10 16 6 28 74 170 83 173 5 2 8 8 5 12 -3 5 3 18 13 28 10 10
16 24 14 30 -2 7 3 12 11 12 8 0 22 15 31 34 8 18 22 39 31 46 8 7 13 15 11
19 -3 4 10 23 29 43 18 20 30 40 26 44 -3 4 0 4 7 0 9 -5 11 -18 7 -37z m2939
-171 c21 -41 20 -46 -3 -22 -10 10 -16 25 -13 33 4 10 1 12 -8 6 -9 -5 -11 -4
-6 3 10 17 13 15 30 -20z m-377 -777 c14 -34 18 -74 18 -158 l-1 -112 23 21
c12 12 25 29 29 40 3 10 10 18 16 18 7 0 9 -19 5 -56 -6 -60 -41 -137 -89
-194 l-29 -35 31 -3 c36 -4 35 -20 -1 -40 -22 -13 -29 -11 -82 21 -60 37 -164
62 -228 55 -32 -3 -34 -2 -45 47 -6 28 -15 57 -18 66 -5 11 7 24 43 47 63 41
155 140 185 200 31 61 56 147 56 191 l0 36 35 -49 c19 -27 42 -69 52 -95z
m-1930 -186 l-16 -46 25 -9 c14 -6 27 -10 29 -10 2 0 25 -10 52 -22 26 -12 52
-20 56 -20 4 1 21 -5 37 -13 27 -14 29 -14 32 7 2 15 11 22 36 24 20 3 31 0
27 -6 -3 -5 0 -7 7 -5 8 3 62 -6 121 -20 59 -14 117 -25 129 -25 19 0 20 -2 8
-10 -12 -8 -8 -10 15 -11 40 -3 49 -2 93 5 23 3 30 2 18 -3 -19 -7 -18 -8 5
-14 72 -19 255 3 244 30 -2 8 0 11 5 8 6 -3 16 -3 23 2 6 4 23 8 37 9 14 0 32
4 40 7 32 13 99 24 102 17 2 -5 23 -5 48 0 24 4 90 7 146 7 85 -2 105 -5 123
-21 28 -26 33 -18 22 38 -13 70 4 43 27 -44 58 -214 56 -387 -8 -640 -32 -129
-43 -193 -49 -295 -8 -139 -13 -154 -59 -198 l-29 -28 4 53 3 53 -15 -47 c-18
-54 -46 -77 -103 -85 l-39 -5 5 51 c5 60 -12 71 -23 14 -11 -61 -22 -73 -63
-73 -63 0 -85 18 -98 80 -10 51 -12 53 -21 30 -6 -14 -8 -39 -6 -57 l5 -32
-33 9 c-19 5 -47 24 -62 41 -26 28 -28 36 -24 88 3 31 10 74 16 96 6 22 13 61
16 87 6 45 7 47 31 38 37 -15 305 2 290 17 -3 4 21 20 55 36 33 16 58 31 55
35 -4 3 -30 5 -59 3 -56 -2 -143 15 -153 31 -3 5 1 17 9 26 14 17 37 75 37 95
0 5 -13 -8 -29 -29 -44 -60 -81 -90 -144 -120 -118 -54 -227 -22 -279 80 -16
32 -19 53 -16 105 11 147 125 287 272 332 87 28 232 23 315 -9 30 -12 56 -20
58 -18 2 2 -12 17 -32 33 -104 86 -321 83 -458 -8 -63 -41 -128 -118 -168
-195 -44 -88 -51 -187 -19 -262 22 -50 87 -122 113 -122 7 0 5 -5 -5 -11 -16
-9 -16 -12 4 -47 12 -20 23 -39 25 -41 2 -3 10 4 18 15 13 17 14 16 11 -21 -2
-22 -10 -61 -16 -87 l-12 -48 -103 0 -103 0 -5 33 c-3 17 -10 59 -15 92 -6 33
-16 111 -22 173 -6 63 -17 128 -24 145 l-13 32 -8 -49 c-11 -69 3 -329 21
-378 19 -55 18 -84 -8 -129 -19 -34 -66 -66 -85 -58 -4 2 -6 16 -4 31 3 35 -8
70 -20 63 -5 -4 -9 -22 -9 -41 0 -49 -37 -84 -88 -84 -45 0 -54 9 -72 65 -7
22 -16 44 -20 49 -14 14 -20 -28 -10 -64 6 -19 10 -36 10 -37 0 -2 -13 -3 -30
-3 -64 0 -119 43 -120 93 0 15 -4 27 -9 27 -18 0 -21 -32 -5 -61 15 -29 15
-30 -5 -20 -50 27 -75 94 -86 231 -4 47 -24 153 -45 235 -51 198 -70 303 -70
381 0 128 53 371 101 466 19 37 22 39 36 25 14 -14 14 -20 0 -62z m-185 -385
c-2 -38 -6 -70 -9 -70 -4 0 -27 13 -52 29 -25 16 -73 37 -105 46 l-60 17 28
15 c33 18 96 30 156 32 l45 1 -3 -70z m1971 44 c26 -9 45 -19 42 -24 -3 -4
-24 -11 -48 -14 -36 -6 -69 -19 -179 -74 -5 -2 -8 29 -8 69 l0 72 73 -6 c39
-4 93 -14 120 -23z m-2088 -108 c82 -37 122 -78 130 -134 4 -26 22 -110 41
-186 19 -77 39 -178 46 -224 12 -79 11 -85 -7 -98 -53 -39 -173 -23 -264 36
-81 52 -204 167 -259 241 -41 55 -47 69 -50 124 -4 52 0 73 24 124 31 70 86
124 142 140 52 14 138 4 197 -23z m2252 3 c52 -25 94 -78 123 -155 25 -67 25
-95 3 -158 -34 -93 -199 -247 -337 -312 -69 -33 -82 -36 -145 -32 -99 5 -109
17 -100 112 4 42 23 140 42 218 20 79 39 165 43 191 7 52 17 66 75 102 103 66
206 77 296 34z"/>
<path d="M1985 3490 c-121 -17 -207 -135 -209 -285 -1 -70 2 -86 26 -127 33
-55 77 -85 146 -98 85 -16 117 -5 193 68 52 48 72 75 80 106 16 59 6 173 -19
222 -19 37 -83 104 -100 104 -4 0 -23 4 -42 8 -19 4 -53 5 -75 2z m139 -92
c38 -35 42 -63 12 -93 -31 -30 -64 -32 -100 -4 -33 26 -34 62 -1 94 30 31 57
32 89 3z m-261 -265 c9 -17 30 -41 46 -52 32 -23 52 -28 33 -9 -14 14 -16 42
-2 33 6 -3 10 -2 10 4 0 5 12 4 28 -5 42 -22 86 -17 121 12 33 27 51 25 51 -7
0 -60 -80 -105 -167 -94 -102 13 -154 74 -152 180 l2 60 6 -45 c4 -25 15 -59
24 -77z"/>
<path d="M2926 3486 c-112 -42 -173 -182 -143 -330 10 -46 94 -141 144 -162
46 -20 140 -17 188 5 84 38 131 134 122 247 -13 162 -178 289 -311 240z m44
-86 c65 -65 -30 -161 -97 -98 -30 28 -29 63 2 93 29 30 68 32 95 5z m205 -256
c-9 -52 -66 -109 -120 -123 -86 -22 -180 19 -180 78 0 17 1 31 3 31 1 0 21 -9
44 -21 47 -24 84 -21 130 13 34 24 66 15 60 -18 -6 -32 25 3 45 51 20 49 29
44 18 -11z"/>
<path d="M3079 3073 c-13 -16 -12 -17 4 -4 16 13 21 21 13 21 -2 0 -10 -8 -17
-17z"/>
<path d="M2426 3119 c-88 -21 -130 -72 -106 -129 14 -33 80 -96 128 -122 66
-35 27 -103 -93 -162 -74 -36 -140 -39 -207 -8 -27 11 -48 19 -48 16 0 -3 13
-24 28 -47 16 -23 39 -68 52 -101 13 -32 39 -81 57 -108 24 -34 37 -69 44
-110 11 -65 45 -142 76 -170 85 -77 255 -55 318 40 29 43 55 120 55 160 0 14
17 52 38 86 21 34 53 93 71 131 19 39 43 81 55 94 18 21 18 23 3 18 -97 -35
-126 -39 -189 -22 -104 26 -188 93 -188 149 0 9 24 31 53 49 76 50 120 100
120 137 0 80 -134 130 -267 99z m117 -36 c16 -15 -18 -33 -63 -33 -52 0 -65 7
-49 27 12 13 100 19 112 6z m-74 -607 c7 -8 15 -31 18 -51 4 -26 10 -35 20
-31 8 4 17 6 19 6 2 0 4 8 4 18 0 30 35 55 65 48 18 -5 25 -13 25 -31 0 -13 5
-27 10 -30 12 -8 13 -69 1 -93 -5 -9 -15 -30 -22 -45 -7 -15 -18 -26 -26 -23
-7 3 -15 0 -19 -6 -5 -7 -2 -8 7 -3 11 6 12 5 1 -6 -29 -32 -162 1 -162 39 0
10 -4 22 -9 28 -8 8 -41 109 -41 123 0 3 5 -1 11 -9 8 -12 9 -9 5 13 -5 18 -1
33 9 43 8 9 15 13 15 10 0 -3 10 -1 23 4 30 12 33 12 46 -4z m-132 -138 c-3
-7 -5 -2 -5 12 0 14 2 19 5 13 2 -7 2 -19 0 -25z m32 -73 c0 -5 -6 1 -14 15
-8 14 -14 30 -14 35 0 6 6 -1 14 -15 8 -14 14 -29 14 -35z"/>
<path d="M3675 3083 c-31 -33 -51 -45 -90 -53 -93 -18 -147 -3 -166 48 -5 14
-12 23 -15 20 -17 -18 82 -153 124 -169 41 -16 85 10 125 73 34 54 69 120 65
123 -2 0 -21 -18 -43 -42z"/>
<path d="M1349 3005 c18 -31 41 -57 65 -70 l36 -20 38 21 c37 21 87 82 77 93
-4 3 -9 1 -13 -5 -10 -15 -107 -17 -147 -4 -18 6 -36 17 -39 25 -3 8 -14 13
-25 12 -20 -1 -19 -3 8 -52z"/>
<path d="M4027 1692 c1 -8 3 -19 3 -25 0 -7 4 -6 10 3 12 19 13 33 1 26 -5 -4
-11 -3 -14 1 -2 5 -2 2 0 -5z"/>
<path d="M3990 1668 c0 -9 5 -20 10 -23 13 -8 13 5 0 25 -8 13 -10 13 -10 -2z"/>
<path d="M3972 1650 c0 -14 2 -19 5 -12 2 6 2 18 0 25 -3 6 -5 1 -5 -13z"/>
<path d="M3950 1636 c0 -8 4 -17 9 -20 5 -4 7 3 4 14 -6 23 -13 26 -13 6z"/>
<path d="M890 1844 c0 -5 6 -19 14 -30 12 -15 17 -17 27 -6 11 10 10 12 -4 12
-9 0 -21 8 -26 18 -6 9 -11 12 -11 6z"/>
<path d="M936 1775 c-9 -26 -7 -32 5 -12 6 10 9 21 6 23 -2 3 -7 -2 -11 -11z"/>
<path d="M972 1765 c12 -27 23 -31 34 -13 4 6 -1 17 -11 25 -28 20 -36 16 -23
-12z"/>
<path d="M1402 1718 c-17 -17 -15 -83 3 -118 22 -43 50 -55 81 -35 47 31 44
72 -10 129 -35 38 -54 44 -74 24z m74 -34 c14 -20 15 -27 4 -37 -10 -10 -12
-8 -7 6 4 9 2 17 -3 17 -6 0 -10 -4 -10 -10 0 -19 -16 -10 -17 10 -1 13 2 18
10 13 7 -4 6 0 -2 10 -8 11 -9 17 -2 17 6 0 18 -11 27 -26z"/>
<path d="M1211 1672 c-20 -38 52 -142 98 -142 26 0 49 22 56 51 5 21 0 34 -23
60 -25 28 -30 30 -29 14 2 -16 -4 -20 -29 -21 -21 0 -30 4 -27 12 2 7 -1 15
-7 19 -9 6 -9 10 1 16 10 6 8 9 -8 9 -12 0 -27 -8 -32 -18z"/>
<path d="M1164 1505 c-17 -43 50 -120 85 -98 28 17 24 48 -10 81 -35 34 -66
41 -75 17z"/>
<path d="M1389 1475 c-55 -30 -76 -104 -45 -163 18 -35 72 -85 113 -106 105
-53 213 31 188 144 -8 37 -65 105 -106 126 -35 18 -116 18 -150 -1z"/>
<path d="M3608 1697 c2 -22 -3 -41 -19 -60 -12 -16 -25 -24 -28 -19 -3 5 -16
15 -29 21 -16 8 -22 18 -18 29 5 13 2 12 -9 -2 -30 -39 -6 -106 39 -106 46 0
93 83 80 143 -8 38 -21 34 -16 -6z"/>
<path d="M3681 1645 c-50 -57 -37 -117 24 -117 14 0 35 8 46 18 27 24 52 72
45 87 -3 9 -5 9 -5 0 -1 -9 -8 -10 -27 -3 -18 7 -23 7 -18 -1 4 -7 1 -10 -7
-7 -8 3 -13 12 -13 21 1 10 -4 13 -15 9 -14 -5 -14 -4 -2 11 26 32 3 17 -28
-18z"/>
<path d="M3770 1501 c-31 -31 -39 -68 -18 -89 38 -38 111 16 106 77 -3 31 -7
36 -31 39 -20 2 -35 -5 -57 -27z"/>
<path d="M3467 1464 c-59 -39 -97 -99 -97 -150 0 -61 16 -89 65 -115 42 -23
43 -23 91 -4 68 25 110 59 133 109 32 66 28 101 -18 147 -34 35 -44 39 -88 39
-35 0 -58 -7 -86 -26z"/>
<path d="M1502 4133 c-34 -20 -62 -40 -62 -45 0 -9 108 48 130 68 26 25 -4 15
-68 -23z"/>
<path d="M1344 4028 l-19 -23 23 19 c21 18 27 26 19 26 -2 0 -12 -10 -23 -22z"/>
<path d="M1222 3935 c-45 -36 -82 -68 -82 -71 0 -7 57 35 111 80 19 17 44 36
55 43 10 6 14 12 9 12 -6 1 -48 -28 -93 -64z"/>
<path d="M3768 3946 c12 -16 35 -39 51 -50 68 -51 207 -193 242 -249 15 -23
43 -60 64 -82 l37 -40 -23 35 c-74 114 -272 329 -359 390 l-35 25 23 -29z"/>
<path d="M1045 3770 c-10 -11 -13 -20 -8 -20 13 0 38 29 31 35 -3 3 -13 -4
-23 -15z"/>
<path d="M880 3567 l-23 -32 29 27 c15 15 26 30 23 33 -3 2 -16 -10 -29 -28z"/>
<path d="M802 3450 c-7 -11 -8 -20 -3 -20 9 0 24 30 18 36 -1 2 -8 -6 -15 -16z"/>
<path d="M4150 3069 c0 -11 4 -18 10 -14 5 3 7 12 3 20 -7 21 -13 19 -13 -6z"/>
<path d="M4552 2600 c0 -19 2 -27 5 -17 2 9 2 25 0 35 -3 9 -5 1 -5 -18z"/>
<path d="M4480 2423 c0 -60 -53 -82 -97 -41 -23 21 -23 21 -23 1 0 -30 38 -73
65 -73 37 0 55 10 70 41 19 36 19 60 0 85 -14 18 -14 17 -15 -13z"/>
<path d="M640 2426 c0 -23 -21 -64 -36 -70 -20 -8 -60 13 -73 38 -10 18 -11
17 -6 -13 11 -69 70 -94 113 -48 23 24 31 90 12 102 -5 3 -10 -1 -10 -9z"/>
<path d="M3984 1326 c-287 -381 -711 -648 -1181 -741 -67 -13 -103 -23 -83
-24 19 -1 73 6 120 15 47 9 107 20 134 25 72 12 137 36 268 95 161 74 210 103
348 202 70 51 252 224 290 277 19 26 49 63 66 83 40 49 77 102 73 106 -2 2
-18 -15 -35 -38z"/>
<path d="M1105 1220 c10 -11 20 -20 23 -20 3 0 -3 9 -13 20 -10 11 -20 20 -23
20 -3 0 3 -9 13 -20z"/>
<path d="M1140 1176 c0 -2 8 -10 18 -17 15 -13 16 -12 3 4 -13 16 -21 21 -21
13z"/>
<path d="M1180 1133 c0 -12 96 -103 147 -140 24 -16 39 -34 35 -38 -4 -5 -1
-5 6 -1 7 4 15 1 18 -8 3 -8 24 -27 47 -43 23 -15 44 -30 47 -33 46 -48 149
-105 390 -213 91 -40 277 -86 395 -96 127 -11 159 -17 163 -30 2 -6 14 -6 31
0 15 5 61 8 102 6 47 -2 83 2 99 10 22 11 4 13 -125 13 -212 -1 -348 18 -530
76 -89 28 -261 97 -315 127 -167 92 -322 202 -439 312 -39 37 -71 63 -71 58z"/>
<path d="M2538 500 c24 -10 30 -48 10 -68 -14 -14 -67 -16 -87 -3 -10 6 -12
19 -8 42 6 32 6 33 -8 15 -20 -27 -19 -48 6 -80 42 -53 139 -16 139 53 0 23
-31 51 -56 50 -17 0 -16 -1 4 -9z"/>
</g>
</svg>
